<svg width="210mm" height="297mm" version="1.1" viewBox="0 0 210 297" xmlns="http://www.w3.org/2000/svg">
 <g fill="#fff" stroke-width=".26458" aria-label="THE HUNT FOR DARK MATTER">
  <path d="m0.21015 0.38126h7.1107v1.5038h-2.558v6.2115h-1.9895v-6.2115h-2.5631z"/>
  <path d="m8.3492 0.38126h1.9895v2.9404h2.9352v-2.9404h1.9895v7.7153h-1.9895v-3.2711h-2.9352v3.2711h-1.9895z"/>
  <path d="m17.206 0.38126h5.3692v1.5038h-3.3796v1.4366h3.1781v1.5038h-3.1781v1.7673h3.4933v1.5038h-5.4829z"/>
  <path d="m28.121 0.38126h1.9895v2.9404h2.9352v-2.9404h1.9895v7.7153h-1.9895v-3.2711h-2.9352v3.2711h-1.9895z"/>
  <path d="m36.978 0.38126h1.9895v4.625q0 0.95601 0.31006 1.3694 0.31522 0.40824 1.0232 0.40824 0.71313 0 1.0232-0.40824 0.31522-0.41341 0.31522-1.3694v-4.625h1.9895v4.625q0 1.6381-0.82165 2.4391-0.82165 0.80098-2.5063 0.80098-1.6795 0-2.5011-0.80098-0.82165-0.80098-0.82165-2.4391z"/>
  <path d="m45.572 0.38126h2.2221l2.806 5.2916v-5.2916h1.8862v7.7153h-2.2221l-2.806-5.2916v5.2916h-1.8862z"/>
  <path d="m53.509 0.38126h7.1107v1.5038h-2.558v6.2115h-1.9895v-6.2115h-2.5631z"/>
  <path d="m65.333 0.38126h5.3692v1.5038h-3.3796v1.4366h3.1781v1.5038h-3.1781v3.2711h-1.9895z"/>
  <path d="m76.086 1.6835q-0.9095 0-1.4108 0.67179t-0.50126 1.8914q0 1.2144 0.50126 1.8862t1.4108 0.67179q0.91467 0 1.4159-0.67179t0.50126-1.8862q0-1.2196-0.50126-1.8914t-1.4159-0.67179zm0-1.4418q1.8603 0 2.9145 1.0645 1.0542 1.0645 1.0542 2.9404 0 1.8707-1.0542 2.9352t-2.9145 1.0645q-1.8552 0-2.9145-1.0645-1.0542-1.0645-1.0542-2.9352 0-1.8758 1.0542-2.9404 1.0594-1.0645 2.9145-1.0645z"/>
  <path d="m84.386 3.8022q0.62528 0 0.894-0.23254 0.27388-0.23254 0.27388-0.76481 0-0.5271-0.27388-0.75447-0.26872-0.22738-0.894-0.22738h-0.83716v1.9792zm-0.83716 1.3746v2.9197h-1.9895v-7.7153h3.0386q1.5244 0 2.2324 0.5116 0.71313 0.5116 0.71313 1.6175 0 0.76481-0.37207 1.2557-0.3669 0.49092-1.111 0.72347 0.40824 0.093017 0.72864 0.42375 0.32556 0.32556 0.65629 0.99218l1.08 2.1911h-2.1187l-0.94051-1.9172q-0.28422-0.57877-0.57878-0.79065-0.28939-0.21187-0.77514-0.21187z"/>
  <path d="m95.382 1.885v4.7077h0.71313q1.2196 0 1.8603-0.60461 0.64595-0.60461 0.64595-1.757 0-1.1472-0.64078-1.7467-0.64079-0.59944-1.8655-0.59944zm-1.9895-1.5038h2.0981q1.757 0 2.6148 0.25321 0.86299 0.24805 1.4779 0.84749 0.5426 0.52193 0.80615 1.2041 0.26355 0.68213 0.26355 1.5451 0 0.87333-0.26355 1.5606-0.26355 0.68213-0.80615 1.2041-0.62012 0.59944-1.4883 0.85266-0.86816 0.24805-2.6045 0.24805h-2.0981z"/>
  <path d="m106.86 6.6909h-3.1109l-0.49092 1.4056h-1.9999l2.8577-7.7153h2.3719l2.8577 7.7153h-1.9999zm-2.6148-1.4314h2.1136l-1.0542-3.0696z"/>
  <path d="m113.2 3.8022q0.62529 0 0.894-0.23254 0.27389-0.23254 0.27389-0.76481 0-0.5271-0.27389-0.75447-0.26871-0.22738-0.894-0.22738h-0.83715v1.9792zm-0.83715 1.3746v2.9197h-1.9895v-7.7153h3.0386q1.5244 0 2.2324 0.5116 0.71313 0.5116 0.71313 1.6175 0 0.76481-0.37207 1.2557-0.3669 0.49092-1.111 0.72347 0.40825 0.093017 0.72864 0.42375 0.32556 0.32556 0.65629 0.99218l1.08 2.1911h-2.1187l-0.94051-1.9172q-0.28422-0.57877-0.57878-0.79065-0.28938-0.21187-0.77514-0.21187z"/>
  <path d="m118.52 0.38126h1.9895v2.8164l2.868-2.8164h2.3099l-3.7155 3.6535 4.0979 4.0618h-2.4908l-3.0696-3.0386v3.0386h-1.9895z"/>
  <path d="m130.4 0.38126h2.5321l1.757 4.1289 1.7673-4.1289h2.527v7.7153h-1.881v-5.643l-1.7777 4.1599h-1.2609l-1.7777-4.1599v5.643h-1.8862z"/>
  <path d="m145.62 6.6909h-3.1109l-0.49092 1.4056h-1.9999l2.8577-7.7153h2.372l2.8577 7.7153h-1.9999zm-2.6148-1.4314h2.1136l-1.0542-3.0696z"/>
  <path d="m147.38 0.38126h7.1107v1.5038h-2.558v6.2115h-1.9895v-6.2115h-2.5631z"/>
  <path d="m154.85 0.38126h7.1107v1.5038h-2.558v6.2115h-1.9895v-6.2115h-2.5631z"/>
  <path d="m162.99 0.38126h5.3692v1.5038h-3.3796v1.4366h3.1781v1.5038h-3.1781v1.7673h3.4933v1.5038h-5.4828z"/>
  <path d="m173.04 3.8022q0.62528 0 0.894-0.23254 0.27388-0.23254 0.27388-0.76481 0-0.5271-0.27388-0.75447-0.26872-0.22738-0.894-0.22738h-0.83716v1.9792zm-0.83716 1.3746v2.9197h-1.9895v-7.7153h3.0386q1.5244 0 2.2324 0.5116 0.71314 0.5116 0.71314 1.6175 0 0.76481-0.37207 1.2557-0.3669 0.49092-1.111 0.72347 0.40824 0.093017 0.72863 0.42375 0.32556 0.32556 0.65629 0.99218l1.08 2.1911h-2.1187l-0.94051-1.9172q-0.28422-0.57877-0.57877-0.79065-0.28939-0.21187-0.77515-0.21187z"/>
 </g>
</svg>
