<svg xmlns="http://www.w3.org/2000/svg" width="39.17" height="39.17" viewBox="0 0 39.17 39.17"><polygon points="21.09 33.43 21.09 27.47 18.09 27.47 18.09 33.43 16.18 31.53 14.06 33.65 18.09 37.67 18.09 37.7 18.12 37.7 19.59 39.17 21.05 37.7 21.09 37.7 21.09 37.67 25.11 33.65 22.99 31.53 21.09 33.43" fill="currentColor"/><polygon points="37.7 18.12 37.7 18.09 37.67 18.09 33.65 14.06 31.53 16.18 33.43 18.09 27.47 18.09 27.47 21.09 33.43 21.09 31.53 22.99 33.65 25.11 37.67 21.09 37.7 21.09 37.7 21.05 39.17 19.59 37.7 18.12" fill="currentColor"/><polygon points="7.64 16.18 5.52 14.06 1.5 18.09 1.47 18.09 1.47 18.12 0 19.59 1.47 21.05 1.47 21.09 1.5 21.09 5.52 25.11 7.64 22.99 5.74 21.09 11.7 21.09 11.7 18.09 5.74 18.09 7.64 16.18" fill="currentColor"/><polygon points="21.09 1.47 21.05 1.47 19.59 0 18.12 1.47 18.09 1.47 18.09 1.5 14.06 5.52 16.18 7.64 18.09 5.74 18.09 11.7 21.09 11.7 21.09 5.74 22.99 7.64 25.11 5.52 21.09 1.5 21.09 1.47" fill="currentColor"/></svg>
