<svg xmlns="http://www.w3.org/2000/svg" width="31.52" height="31.52" viewBox="0 0 31.52 31.52"><path d="M15.76,0A15.76,15.76,0,1,0,31.52,15.76,15.77,15.77,0,0,0,15.76,0Zm0,25.71a9,9,0,0,1-9-9H9.1v0a6.65,6.65,0,1,0,6.66-6.65H11.9l1.76,1.76L12,13.51,7.45,9l4.39-4.55,1.67,1.67L11.9,7.75h3.86a9,9,0,1,1,0,18Zm-2.62-9.26a2.62,2.62,0,1,1,2.62,2.62A2.62,2.62,0,0,1,13.14,16.45Z" fill="#f4ff24"/><path d="M18.38,16.45a2.62,2.62,0,1,0-2.62,2.62A2.62,2.62,0,0,0,18.38,16.45Z"/><path d="M15.76,7.75H11.9l1.61-1.62L11.84,4.46,7.45,9,12,13.51l1.64-1.66L11.9,10.09h3.86A6.65,6.65,0,1,1,9.1,16.74v0H6.77a9,9,0,1,0,9-9Z"/></svg>