<svg xmlns="http://www.w3.org/2000/svg" width="31.6" height="31.6" viewBox="0 0 31.6 31.6"><circle cx="15.8" cy="15.8" r="15.8" fill="#666"/><path d="M21.9,15.1l-2.7,2.7a3.8,3.8,0,0,1-5.4,0,5.55,5.55,0,0,1-.6-.8l1.3-1.3c.1-.1.1-.1.2-.1a1.37,1.37,0,0,0,.5.8,2,2,0,0,0,2.7,0l2.7-2.7A1.91,1.91,0,1,0,17.9,11l-1,1a5.24,5.24,0,0,0-2.5-.3l2.1-2.1a3.8,3.8,0,0,1,5.4,0A3.92,3.92,0,0,1,21.9,15.1Zm-7.2,4.4-1,1A1.91,1.91,0,0,1,11,17.8l2.7-2.7a2,2,0,0,1,2.7,0,2.18,2.18,0,0,1,.5.8c.1,0,.1-.1.2-.1l1.3-1.3a4.17,4.17,0,0,0-.6-.8,3.8,3.8,0,0,0-5.4,0L9.7,16.4a3.82,3.82,0,1,0,5.4,5.4l2.1-2.1A3.57,3.57,0,0,1,14.7,19.5Z"/></svg>