<?xml version="1.0" encoding="UTF-8"?>
<svg width="45px" height="45px" viewBox="0 0 45 45" version="1.1" xmlns="http://www.w3.org/2000/svg" xmlns:xlink="http://www.w3.org/1999/xlink">
    <title>help</title>
    <g id="Styles" stroke="none" stroke-width="1" fill="none" fill-rule="evenodd">
        
        <path d="M22.1059286,1.00032143 C27.9343346,1.00032143 33.2110955,3.36265494 37.0307254,7.18209969 C40.8502444,11.0014335 43.2127143,16.2777972 43.2127143,22.1060357 C43.2127143,27.9342743 40.8502444,33.2106379 37.0307254,37.0299717 C33.2110955,40.8494165 27.9343346,43.21175 22.1059286,43.21175 C16.2779046,43.21175 11.0010462,40.8492993 7.18127018,37.0297084 C3.36177412,33.2103975 0.999142857,27.9341448 0.999142857,22.1060357 C0.999142857,16.2779266 3.36177412,11.0016739 7.18127018,7.182363 C11.0010462,3.36277211 16.2779046,1.00032143 22.1059286,1.00032143 Z" id="Stroke-1" stroke="currentColor" stroke-width="2"></path>
        <path d="M23.614,27.735 L23.776,25.305 C26.584,24.738 28.744,22.956 28.744,18.879 C28.744,15.099 26.584,12.831 22.777,12.831 C18.538,12.831 17.026,15.504 16.972,18.798 L20.131,19.014 C20.212,16.854 20.806,15.504 22.642,15.504 C24.235,15.504 25.288,16.476 25.288,18.906 C25.288,21.687 24.046,23.091 20.293,23.199 L20.482,27.735 L23.614,27.735 Z M23.722,33 L23.722,29.517 L20.239,29.517 L20.239,33 L23.722,33 Z" id="?" fill="currentColor" fill-rule="nonzero"></path>
            
    </g>
</svg>